<svg width="191" height="187" viewBox="0 0 191 187" fill="none" xmlns="http://www.w3.org/2000/svg">
<path d="M142.471 91.6258C139.103 79.1684 128.717 74.0471 123.946 73.0435H59.7616C35.8095 73.0435 34.4061 112.699 32.8155 119.447C31.5431 124.845 22.1806 147.511 17.6583 158.169C19.8103 158.861 24.9562 159.83 28.3245 158.169C32.5348 156.093 43.3881 155.677 51.0603 158.169C58.7324 160.66 69.96 158.169 78.3806 155.677C86.8013 153.186 100.742 155.262 107.946 158.169C115.151 161.075 127.314 156.093 136.015 151.421C144.717 146.75 164.552 157.338 158.845 147.269C153.137 137.199 146.681 107.197 142.471 91.6258Z" fill="#FF5D5D"/>
<rect x="58.3044" y="16.2498" width="77.1486" height="119.931" rx="38.5743" fill="#2A72FF"/>
<rect x="120.724" y="85.6835" width="14.027" height="100.293" rx="7.01351" fill="#2A72FF"/>
<rect x="58.3042" y="85.6835" width="13.3257" height="100.293" rx="6.66283" fill="#2A72FF"/>
<rect x="120.725" y="174.054" width="14.027" height="11.923" rx="5.96148" fill="#F1D4A8"/>
<rect x="49.8882" y="174.755" width="19.6378" height="11.923" rx="5.96148" fill="#F1D4A8"/>
<path d="M32.1676 63.6782C36.2863 75.2677 49.6722 95.7201 70.2667 84.8138" stroke="#2A72FF" stroke-width="14"/>
<rect x="0.0922852" y="8.47635" width="19.2147" height="81.6625" rx="9.60735" transform="rotate(-25.2829 0.0922852 8.47635)" fill="white"/>
<rect x="10.1055" y="7.90338" width="10.0277" height="78.2161" rx="5.01385" transform="rotate(-25.2829 10.1055 7.90338)" fill="#EAEAEA"/>
<rect x="30.5322" y="70.7575" width="19.2147" height="18.3793" rx="9.18964" transform="rotate(-25.2829 30.5322 70.7575)" fill="#F1D4A8"/>
<ellipse cx="111.958" cy="47.8105" rx="13.6763" ry="12.6243" fill="white"/>
<ellipse cx="129.492" cy="26.7701" rx="8.06553" ry="8.41621" fill="#2A72FF"/>
<ellipse cx="64.6164" cy="27.8221" rx="8.41621" ry="8.06553" fill="#2A72FF"/>
<circle cx="116.533" cy="49.432" r="4.38596" fill="black"/>
<circle cx="113.713" cy="48.9098" r="2.40184" fill="white"/>
<rect x="86.6665" y="59.0393" width="4.17711" height="14.6199" rx="2.08856" fill="white"/>
<rect x="90.6345" y="59.0393" width="4.17711" height="14.6199" rx="2.08856" fill="white"/>
<rect x="80.6096" y="56.1153" width="20.6767" height="10.2339" rx="5.11696" fill="#F1D4A8"/>
<rect x="86.0398" y="54.0268" width="8.98078" height="7.10109" rx="3.55054" fill="black"/>
<ellipse cx="69.8768" cy="47.8106" rx="13.6763" ry="12.6243" fill="white"/>
<circle cx="65.3633" cy="46.9257" r="4.38596" fill="black"/>
<circle cx="62.5437" cy="46.4036" r="2.40184" fill="white"/>
<rect width="26.6374" height="10.2339" transform="matrix(-0.869555 0.493836 0.493836 0.869555 48.3789 57.522)" fill="#DDDDDD"/>
<path d="M150.865 73.2841L111.118 66.386C111.118 66.386 93.474 136.238 134.559 167.231" fill="white"/>
<path d="M150.865 73.2841L190.612 80.1823C190.612 80.1823 183.685 151.894 134.559 167.231" fill="#EAEAEA"/>
</svg>
