<?xml version="1.0" encoding="utf-8"?>
<!-- Generator: Adobe Illustrator 24.1.2, SVG Export Plug-In . SVG Version: 6.00 Build 0)  -->
<svg version="1.1" xmlns="http://www.w3.org/2000/svg" xmlns:xlink="http://www.w3.org/1999/xlink" x="0px" y="0px"
	 viewBox="0 0 1920 1080" style="enable-background:new 0 0 1920 1080;" xml:space="preserve">
<style type="text/css">
	.st0{stroke:#000000;stroke-width:6;stroke-linecap:round;stroke-linejoin:round;stroke-miterlimit:10;}
	.st1{fill:#FF5D5D;}
	.st2{fill:#2A72FF;}
	.st3{fill:#F1D4A8;}
	.st4{fill:#FFFFFF;}
	.st5{fill:#EAEAEA;}
	.st6{fill:#DDDDDD;}
</style>
<g id="DESIGNED_BY_FREEPIK">
	<rect x="0" class="st0" width="1920" height="1080"/>
</g>
<g id="OBJECTS">
</g>
<g id="Слой_3">
	<g>
		<path class="st1" d="M1102.68,565.2c-11.95-44.21-48.81-62.39-65.75-65.95H809.14c-85.01,0-89.99,140.74-95.63,164.69
			c-4.52,19.16-37.74,99.6-53.79,137.43c7.64,2.46,25.9,5.89,37.85,0c14.94-7.37,53.46-8.84,80.69,0c27.23,8.84,67.08,0,96.96-8.84
			c29.89-8.84,79.36-1.47,104.93,8.84c25.57,10.31,68.74-7.37,99.62-23.95c30.88-16.58,101.28,21,81.02-14.74
			C1140.53,726.94,1117.62,620.46,1102.68,565.2z"/>
		<path class="st2" d="M940.87,297.69L940.87,297.69c75.61,0,136.9,61.29,136.9,136.9v151.84c0,75.61-61.29,136.9-136.9,136.9l0,0
			c-75.61,0-136.9-61.29-136.9-136.9V434.59C803.97,358.98,865.26,297.69,940.87,297.69z"/>
		<path class="st2" d="M1050.39,544.11L1050.39,544.11c13.75,0,24.89,11.14,24.89,24.89v306.16c0,13.75-11.14,24.89-24.89,24.89l0,0
			c-13.75,0-24.89-11.14-24.89-24.89V569C1025.5,555.26,1036.64,544.11,1050.39,544.11z"/>
		<path class="st2" d="M827.61,544.11L827.61,544.11c13.06,0,23.65,10.59,23.65,23.65v308.65c0,13.06-10.59,23.65-23.65,23.65h0
			c-13.06,0-23.65-10.59-23.65-23.65V567.76C803.97,554.7,814.56,544.11,827.61,544.11z"/>
		<path class="st3" d="M1046.66,857.74h7.47c11.68,0,21.16,9.47,21.16,21.16v0c0,11.68-9.47,21.16-21.16,21.16h-7.47
			c-11.69,0-21.16-9.47-21.16-21.16v0C1025.5,867.21,1034.97,857.74,1046.66,857.74z"/>
		<path class="st3" d="M795.26,860.23h27.38c11.68,0,21.16,9.47,21.16,21.16v0c0,11.68-9.47,21.16-21.16,21.16h-27.38
			c-11.68,0-21.16-9.47-21.16-21.16v0C774.1,869.7,783.57,860.23,795.26,860.23z"/>
		<path class="st2" d="M805.7,576.84c-11.82,0-23.44-2.18-34.66-6.54c-42.04-16.36-70.57-60.3-83.24-95.97l46.82-16.64
			c9.26,26.06,29.69,56.66,54.44,66.3c14.14,5.5,29.09,3.9,45.74-4.92l23.25,43.91C840.64,572.2,822.97,576.84,805.7,576.84z"/>
		<path class="st4" d="M628.2,255.54L628.2,255.54c17.03-8.04,37.35-0.76,45.39,16.27l94.66,200.4
			c8.04,17.03,0.76,37.35-16.27,45.39l0,0c-17.03,8.04-37.35,0.76-45.39-16.27l-94.66-200.4
			C603.89,283.9,611.18,263.58,628.2,255.54z"/>
		<path class="st5" d="M649,260.47L649,260.47c8.89-4.2,19.49-0.4,23.69,8.49l103.36,218.82c4.2,8.89,0.4,19.49-8.49,23.69l0,0
			c-8.89,4.2-19.49,0.4-23.69-8.49L640.51,284.16C636.31,275.27,640.11,264.66,649,260.47z"/>
		<path class="st3" d="M734.89,477.21l2.68-1.27c16.29-7.69,35.73-0.73,43.42,15.56v0c7.69,16.29,0.73,35.73-15.56,43.42l-2.68,1.27
			c-16.29,7.69-35.73,0.73-43.42-15.56l0,0C711.64,504.34,718.61,484.9,734.89,477.21z"/>
		<ellipse class="st4" cx="994.39" cy="409.7" rx="48.54" ry="44.8"/>
		<ellipse class="st2" cx="1056.62" cy="335.03" rx="28.62" ry="29.87"/>
		<ellipse class="st2" cx="826.37" cy="338.76" rx="29.87" ry="28.62"/>
		<circle cx="1010.62" cy="415.45" r="15.57"/>
		<circle class="st4" cx="1000.62" cy="413.6" r="8.52"/>
		<path class="st4" d="M912.04,449.55L912.04,449.55c4.09,0,7.41,3.32,7.41,7.41v37.06c0,4.09-3.32,7.41-7.41,7.41l0,0
			c-4.09,0-7.41-3.32-7.41-7.41v-37.06C904.63,452.87,907.95,449.55,912.04,449.55z"/>
		<path class="st4" d="M926.12,449.55L926.12,449.55c4.09,0,7.41,3.32,7.41,7.41v37.06c0,4.09-3.32,7.41-7.41,7.41l0,0
			c-4.09,0-7.41-3.32-7.41-7.41v-37.06C918.71,452.87,922.03,449.55,926.12,449.55z"/>
		<path class="st3" d="M901.29,439.17h37.06c10.03,0,18.16,8.13,18.16,18.16l0,0c0,10.03-8.13,18.16-18.16,18.16h-37.06
			c-10.03,0-18.16-8.13-18.16-18.16l0,0C883.13,447.3,891.26,439.17,901.29,439.17z"/>
		<path d="M915,431.76h6.67c6.96,0,12.6,5.64,12.6,12.6v0c0,6.96-5.64,12.6-12.6,12.6H915c-6.96,0-12.6-5.64-12.6-12.6v0
			C902.4,437.4,908.04,431.76,915,431.76z"/>
		<ellipse class="st4" cx="845.04" cy="409.7" rx="48.54" ry="44.8"/>
		<ellipse transform="matrix(0.1602 -0.9871 0.9871 0.1602 294.9179 1159.7517)" cx="829.02" cy="406.56" rx="15.57" ry="15.57"/>
		<circle class="st4" cx="819.01" cy="404.71" r="8.52"/>
		
			<rect x="689.34" y="465.14" transform="matrix(0.8696 -0.4938 0.4938 0.8696 -142.5838 426.8079)" class="st6" width="94.54" height="36.32"/>
		<path class="st4" d="M1132.47,500.11l-141.06-24.48c0,0-62.62,247.91,83.19,357.9"/>
		<path class="st5" d="M1132.47,500.11l141.06,24.48c0,0-24.58,254.51-198.93,308.94"/>
		<path class="st1" d="M1160.03,644.86c-1.44-13.87-11.61-21.12-16.51-23.01l-68.29-11.02c-25.48-4.11-33.81,37.96-36.67,44.89
			c-2.28,5.54-16.15,28.12-22.8,38.71c2.17,1.11,7.48,3.03,11.35,1.83c4.84-1.49,16.46-0.07,24.19,3.9
			c7.73,3.97,20.11,3.25,29.5,2.03c9.39-1.21,23.86,3.4,31.03,7.74c7.17,4.34,20.96,1.11,31.03-2.38s29.34,11.21,25-0.51
			C1163.53,695.32,1161.83,662.2,1160.03,644.86z"/>
		<path class="st2" d="M1124.68,556.69L1124.68,556.69c22.7,3.67,38.14,25.04,34.47,47.75l-7.36,45.59
			c-3.67,22.7-25.04,38.14-47.75,34.47h0c-22.7-3.67-38.14-25.04-34.47-47.75l7.36-45.59
			C1080.6,568.45,1101.98,553.02,1124.68,556.69z"/>
		<path class="st2" d="M1145.62,635.99L1145.62,635.99c4.13,0.67,6.93,4.55,6.27,8.68l-14.84,91.94c-0.67,4.13-4.55,6.93-8.68,6.27
			l0,0c-4.13-0.67-6.93-4.55-6.27-8.68l14.84-91.94C1137.6,638.13,1141.49,635.32,1145.62,635.99z"/>
		<path class="st2" d="M1078.72,625.19L1078.72,625.19c3.92,0.63,6.59,4.33,5.95,8.25l-14.96,92.68c-0.63,3.92-4.33,6.59-8.25,5.95
			l0,0c-3.92-0.63-6.59-4.33-5.95-8.25l14.96-92.68C1071.11,627.22,1074.8,624.56,1078.72,625.19z"/>
		<path class="st3" d="M1129.29,729.99l2.24,0.36c3.51,0.57,5.89,3.87,5.33,7.38v0c-0.57,3.51-3.87,5.89-7.38,5.33l-2.24-0.36
			c-3.51-0.57-5.89-3.87-5.33-7.38v0C1122.48,731.81,1125.78,729.42,1129.29,729.99z"/>
		<path class="st3" d="M1053.68,718.55l8.22,1.33c3.51,0.57,5.89,3.87,5.33,7.38v0c-0.57,3.51-3.87,5.89-7.38,5.33l-8.22-1.33
			c-3.51-0.57-5.89-3.87-5.33-7.38v0C1046.87,720.37,1050.17,717.98,1053.68,718.55z"/>
		<path class="st2" d="M1076.17,633.75c-6.08,0-10.72-1.84-13.91-3.77c-8.76-5.3-13.33-15.13-14.7-22.57l13.96-2.56
			c0.83,4.53,3.65,10.3,8.08,12.98c3.43,2.07,7.62,2.29,12.82,0.68l4.21,13.56C1082.78,633.26,1079.29,633.75,1076.17,633.75z"/>
		<path class="st4" d="M1032.83,528.87L1032.83,528.87c5.5-1.59,11.25,1.58,12.84,7.09l18.71,64.77c1.59,5.5-1.58,11.25-7.09,12.84
			l0,0c-5.5,1.59-11.25-1.58-12.84-7.09l-18.71-64.77C1024.16,536.21,1027.33,530.46,1032.83,528.87z"/>
		<path class="st5" d="M1038.84,531.36L1038.84,531.36c2.87-0.83,5.87,0.83,6.7,3.7l20.43,70.72c0.83,2.87-0.83,5.87-3.7,6.7v0
			c-2.87,0.83-5.87-0.83-6.7-3.7l-20.43-70.72C1034.31,535.19,1035.97,532.19,1038.84,531.36z"/>
		<path class="st3" d="M1054.12,600.61l0.87-0.25c5.26-1.52,10.76,1.51,12.28,6.78l0,0c1.52,5.26-1.51,10.76-6.78,12.28l-0.87,0.25
			c-5.26,1.52-10.76-1.51-12.28-6.78l0,0C1045.82,607.63,1048.86,602.13,1054.12,600.61z"/>
		
			<ellipse transform="matrix(0.1594 -0.9872 0.9872 0.1594 369.0262 1619.2153)" class="st4" cx="1135.32" cy="592.91" rx="13.63" ry="14.76"/>
		
			<ellipse transform="matrix(0.1594 -0.9872 0.9872 0.1594 406.9349 1624.9226)" class="st2" cx="1157.63" cy="573.51" rx="9.09" ry="8.71"/>
		
			<ellipse transform="matrix(0.1594 -0.9872 0.9872 0.1594 358.577 1548.0483)" class="st2" cx="1088.31" cy="563.47" rx="8.71" ry="9.09"/>
		<ellipse transform="matrix(0.1594 -0.9872 0.9872 0.1594 370.4079 1625.8657)" cx="1139.92" cy="595.43" rx="4.73" ry="4.73"/>
		<circle class="st4" cx="1137" cy="594.39" r="2.59"/>
		<path class="st4" d="M1108.66,600.89L1108.66,600.89c1.23,0.2,2.06,1.36,1.87,2.59l-1.8,11.13c-0.2,1.23-1.36,2.06-2.59,1.87l0,0
			c-1.23-0.2-2.06-1.36-1.87-2.59l1.8-11.13C1106.27,601.53,1107.43,600.69,1108.66,600.89z"/>
		<path class="st4" d="M1112.89,601.57L1112.89,601.57c1.23,0.2,2.06,1.36,1.87,2.59l-1.8,11.13c-0.2,1.23-1.36,2.06-2.59,1.87l0,0
			c-1.23-0.2-2.06-1.36-1.87-2.59l1.8-11.13C1110.5,602.21,1111.66,601.37,1112.89,601.57z"/>
		<path class="st3" d="M1105.94,597.25l11.13,1.8c3.01,0.49,5.06,3.32,4.57,6.33l0,0c-0.49,3.01-3.32,5.06-6.33,4.57l-11.13-1.8
			c-3.01-0.49-5.06-3.32-4.57-6.33l0,0C1100.09,598.81,1102.92,596.77,1105.94,597.25z"/>
		<path d="M1110.41,595.69l2,0.32c2.09,0.34,3.51,2.31,3.17,4.39v0c-0.34,2.09-2.31,3.51-4.39,3.17l-2-0.32
			c-2.09-0.34-3.51-2.3-3.17-4.39v0C1106.36,596.77,1108.32,595.35,1110.41,595.69z"/>
		
			<ellipse transform="matrix(0.1594 -0.9872 0.9872 0.1594 338.4737 1568.853)" class="st4" cx="1090.47" cy="585.67" rx="13.63" ry="14.76"/>
		<ellipse transform="matrix(0.1594 -0.9872 0.9872 0.1594 336.257 1562.8107)" cx="1085.81" cy="583.95" rx="4.73" ry="4.73"/>
		<circle class="st4" cx="1082.9" cy="582.91" r="2.59"/>
		
			<rect x="1039.97" y="596.99" transform="matrix(0.9372 -0.3489 0.3489 0.9372 -143.9688 405.7532)" class="st6" width="28.76" height="11.05"/>
		<path class="st5" d="M1172.4,626.76l-41.17-14.19c0,0-30.82,71.41,7.63,111.51"/>
		<path class="st4" d="M1172.4,626.76l41.17,14.19c0,0-19.72,75.23-74.71,83.13"/>
		<path class="st1" d="M1171.85,673.94c0.16-4.09-2.49-6.62-3.83-7.38l-19.39-6.06c-7.24-2.26-11.41,9.62-12.54,11.52
			c-0.89,1.51-5.87,7.5-8.24,10.3c0.58,0.41,2.04,1.19,3.22,1c1.47-0.23,4.79,0.67,6.87,2.15c2.08,1.48,5.71,1.79,8.49,1.83
			c2.78,0.04,6.8,1.98,8.7,3.55c1.9,1.56,6.05,1.2,9.12,0.61c3.07-0.59,8.06,4.49,7.29,0.9
			C1170.76,688.75,1171.65,679.06,1171.85,673.94z"/>
		<path class="st2" d="M1165.27,646.83L1165.27,646.83c6.45,2.02,10.04,8.87,8.02,15.32l-4.05,12.94
			c-2.02,6.45-8.87,10.04-15.32,8.02l0,0c-6.45-2.02-10.04-8.87-8.02-15.32l4.05-12.94
			C1151.96,648.41,1158.82,644.82,1165.27,646.83z"/>
		<path class="st2" d="M1168.04,670.76L1168.04,670.76c1.17,0.37,1.83,1.61,1.46,2.79l-8.16,26.1c-0.37,1.17-1.61,1.83-2.79,1.46h0
			c-1.17-0.37-1.83-1.61-1.46-2.79l8.16-26.1C1165.62,671.05,1166.87,670.39,1168.04,670.76z"/>
		<path class="st2" d="M1149.04,664.82L1149.04,664.82c1.11,0.35,1.73,1.53,1.39,2.65l-8.23,26.31c-0.35,1.11-1.53,1.73-2.65,1.39
			l0,0c-1.11-0.35-1.73-1.53-1.39-2.65l8.23-26.31C1146.75,665.1,1147.93,664.48,1149.04,664.82z"/>
		<path class="st3" d="M1159.36,697.4l0.64,0.2c1,0.31,1.55,1.37,1.24,2.37v0c-0.31,1-1.37,1.55-2.37,1.24l-0.64-0.2
			c-1-0.31-1.55-1.37-1.24-2.37l0,0C1157.3,697.64,1158.36,697.09,1159.36,697.4z"/>
		<path class="st3" d="M1137.86,690.91l2.33,0.73c1,0.31,1.55,1.37,1.24,2.37l0,0c-0.31,1-1.37,1.55-2.37,1.24l-2.33-0.73
			c-1-0.31-1.55-1.37-1.24-2.37l0,0C1135.8,691.15,1136.86,690.6,1137.86,690.91z"/>
		<path class="st2" d="M1150.1,666.22c-2.15,0-4.04-0.63-5.56-1.88c-2.58-2.11-3.61-5.57-3.7-8.09l3.55-0.13
			c0.06,1.67,0.73,4.11,2.4,5.48c1.16,0.96,2.74,1.27,4.67,0.96l0.58,3.5C1151.37,666.17,1150.73,666.22,1150.1,666.22z"/>
		<path class="st4" d="M1139.73,634.91L1139.73,634.91c1.67-0.23,3.2,0.93,3.44,2.6l2.73,19.61c0.23,1.67-0.93,3.2-2.6,3.44l0,0
			c-1.67,0.23-3.2-0.93-3.44-2.6l-2.73-19.61C1136.91,636.68,1138.07,635.14,1139.73,634.91z"/>
		<path class="st5" d="M1141.38,635.88L1141.38,635.88c0.87-0.12,1.67,0.49,1.79,1.36l2.98,21.41c0.12,0.87-0.49,1.67-1.36,1.79l0,0
			c-0.87,0.12-1.67-0.49-1.79-1.36l-2.98-21.41C1139.9,636.81,1140.51,636,1141.38,635.88z"/>
		<path class="st3" d="M1142.92,656.65l0.26-0.04c1.59-0.22,3.06,0.89,3.29,2.48l0,0c0.22,1.59-0.89,3.06-2.48,3.29l-0.26,0.04
			c-1.59,0.22-3.06-0.89-3.29-2.48l0,0C1140.22,658.34,1141.33,656.87,1142.92,656.65z"/>
		
			<ellipse transform="matrix(0.2984 -0.9544 0.9544 0.2984 190.8234 1575.2102)" class="st4" cx="1166.85" cy="657.81" rx="4" ry="4.34"/>
		
			<ellipse transform="matrix(0.2984 -0.9544 0.9544 0.2984 200.4354 1578.8669)" class="st2" cx="1174.14" cy="653.1" rx="2.67" ry="2.56"/>
		
			<ellipse transform="matrix(0.2984 -0.9544 0.9544 0.2984 192.1452 1555.9554)" class="st2" cx="1154.41" cy="647.28" rx="2.56" ry="2.67"/>
		<ellipse transform="matrix(0.2984 -0.9544 0.9544 0.2984 190.8068 1577.0331)" cx="1168.08" cy="658.73" rx="1.39" ry="1.39"/>
		<circle class="st4" cx="1167.27" cy="658.31" r="0.76"/>
		<path class="st4" d="M1158.76,659.01L1158.76,659.01c0.35,0.11,0.54,0.48,0.43,0.83l-0.99,3.16c-0.11,0.35-0.48,0.54-0.83,0.43
			l0,0c-0.35-0.11-0.54-0.48-0.43-0.83l0.99-3.16C1158.04,659.1,1158.41,658.9,1158.76,659.01z"/>
		<path class="st4" d="M1159.96,659.39L1159.96,659.39c0.35,0.11,0.54,0.48,0.43,0.83l-0.99,3.16c-0.11,0.35-0.48,0.54-0.83,0.43
			l0,0c-0.35-0.11-0.54-0.48-0.43-0.83l0.99-3.16C1159.24,659.47,1159.61,659.28,1159.96,659.39z"/>
		<path class="st3" d="M1158.12,657.84l3.16,0.99c0.85,0.27,1.33,1.18,1.06,2.03l0,0c-0.27,0.85-1.18,1.33-2.03,1.06l-3.16-0.99
			c-0.85-0.27-1.33-1.18-1.06-2.03l0,0C1156.36,658.05,1157.27,657.57,1158.12,657.84z"/>
		<path d="M1159.49,657.57l0.57,0.18c0.59,0.19,0.92,0.82,0.74,1.41l0,0c-0.19,0.59-0.82,0.92-1.41,0.74l-0.57-0.18
			c-0.59-0.19-0.92-0.82-0.74-1.41l0,0C1158.27,657.72,1158.9,657.39,1159.49,657.57z"/>
		
			<ellipse transform="matrix(0.2984 -0.9544 0.9544 0.2984 185.6898 1560.2626)" class="st4" cx="1154.11" cy="653.83" rx="4" ry="4.34"/>
		<ellipse transform="matrix(0.2984 -0.9544 0.9544 0.2984 185.4515 1558.5543)" cx="1152.83" cy="653.14" rx="1.39" ry="1.39"/>
		<circle class="st4" cx="1152.02" cy="652.71" r="0.76"/>
		
			<rect x="1138.69" y="655.59" transform="matrix(0.9773 -0.2119 0.2119 0.9773 -113.2962 257.0658)" class="st6" width="8.44" height="3.24"/>
		<path class="st4" d="M1176.21,669.2l-11.37-5.85c0,0-11.95,19.47-2.45,32.73"/>
		<path class="st5" d="M1176.21,669.2l11.37,5.85c0,0-8.88,21.04-25.19,21.04"/>
		<path class="st1" d="M1175.46,684.62c0.21-1.3-0.54-2.2-0.94-2.49l-5.93-2.64c-2.21-0.99-3.98,2.63-4.41,3.19
			c-0.34,0.45-2.15,2.16-3.01,2.96c0.17,0.15,0.61,0.46,0.99,0.44c0.48-0.02,1.5,0.39,2.1,0.94c0.6,0.55,1.75,0.78,2.63,0.9
			c0.88,0.12,2.09,0.88,2.63,1.45c0.55,0.57,1.88,0.61,2.87,0.53c1-0.07,2.4,1.73,2.28,0.56
			C1174.56,689.29,1175.2,686.24,1175.46,684.62z"/>
		<path class="st2" d="M1174.38,675.76L1174.38,675.76c1.97,0.88,2.86,3.19,1.98,5.17l-1.77,3.96c-0.88,1.97-3.19,2.86-5.17,1.98
			l0,0c-1.97-0.88-2.86-3.19-1.98-5.17l1.77-3.96C1170.09,675.77,1172.4,674.88,1174.38,675.76z"/>
		<path class="st2" d="M1174.36,683.47L1174.36,683.47c0.36,0.16,0.52,0.58,0.36,0.94l-3.56,7.99c-0.16,0.36-0.58,0.52-0.94,0.36
			l0,0c-0.36-0.16-0.52-0.58-0.36-0.94l3.56-7.99C1173.58,683.47,1174,683.31,1174.36,683.47z"/>
		<path class="st2" d="M1168.55,680.87L1168.55,680.87c0.34,0.15,0.49,0.55,0.34,0.89l-3.59,8.05c-0.15,0.34-0.55,0.49-0.89,0.34
			l0,0c-0.34-0.15-0.49-0.55-0.34-0.89l3.59-8.05C1167.81,680.87,1168.21,680.72,1168.55,680.87z"/>
		<path class="st3" d="M1170.61,691.61l0.19,0.09c0.3,0.14,0.44,0.49,0.31,0.8l0,0c-0.14,0.3-0.49,0.44-0.8,0.31l-0.19-0.09
			c-0.3-0.14-0.44-0.49-0.31-0.8v0C1169.95,691.61,1170.31,691.47,1170.61,691.61z"/>
		<path class="st3" d="M1164.03,688.74l0.71,0.32c0.3,0.14,0.44,0.49,0.31,0.8v0c-0.14,0.3-0.49,0.44-0.8,0.31l-0.71-0.32
			c-0.3-0.14-0.44-0.49-0.31-0.8v0C1163.36,688.75,1163.72,688.61,1164.03,688.74z"/>
		<path class="st2" d="M1169.26,682.59c-1.5,0-2.45-0.64-2.98-1.19c-1.29-1.33-1.25-3.13-1.21-3.65l3.54,0.28
			c-0.02,0.3,0.06,0.73,0.23,0.9c0.11,0.11,0.33,0.11,0.52,0.11l0.16,3.54C1169.42,682.59,1169.34,682.59,1169.26,682.59z"/>
		<path class="st4" d="M1166.71,671.02L1166.71,671.02c0.54-0.01,0.98,0.41,0.99,0.95l0.14,6.33c0.01,0.54-0.42,0.98-0.95,1l0,0
			c-0.54,0.01-0.98-0.41-1-0.95l-0.14-6.33C1165.74,671.48,1166.17,671.03,1166.71,671.02z"/>
		<path class="st5" d="M1167.19,671.4L1167.19,671.4c0.28-0.01,0.51,0.22,0.52,0.5l0.15,6.91c0.01,0.28-0.22,0.51-0.5,0.52l0,0
			c-0.28,0.01-0.51-0.22-0.52-0.5l-0.15-6.91C1166.69,671.63,1166.91,671.4,1167.19,671.4z"/>
		<path class="st3" d="M1166.91,678.05l0.08,0c0.51-0.01,0.94,0.4,0.95,0.91l0,0c0.01,0.51-0.4,0.94-0.91,0.95l-0.08,0
			c-0.51,0.01-0.94-0.4-0.95-0.91l0,0C1165.99,678.48,1166.39,678.06,1166.91,678.05z"/>
		
			<ellipse transform="matrix(0.4074 -0.9133 0.9133 0.4074 75.634 1475.1681)" class="st4" cx="1174.47" cy="679.31" rx="1.28" ry="1.39"/>
		
			<ellipse transform="matrix(0.4074 -0.9133 0.9133 0.4074 78.2276 1476.7231)" class="st2" cx="1176.96" cy="678.09" rx="0.85" ry="0.82"/>
		
			<ellipse transform="matrix(0.4074 -0.9133 0.9133 0.4074 76.9991 1469.6626)" class="st2" cx="1170.91" cy="675.5" rx="0.82" ry="0.85"/>
		<ellipse transform="matrix(0.4074 -0.9133 0.9133 0.4074 75.5352 1475.6973)" cx="1174.82" cy="679.65" rx="0.44" ry="0.44"/>
		<circle class="st4" cx="1174.58" cy="679.48" r="0.24"/>
		<path class="st4" d="M1171.85,679.39L1171.85,679.39c0.11,0.05,0.15,0.17,0.11,0.28l-0.43,0.97c-0.05,0.11-0.17,0.15-0.28,0.11
			l0,0c-0.11-0.05-0.15-0.17-0.11-0.28l0.43-0.97C1171.62,679.39,1171.74,679.34,1171.85,679.39z"/>
		<path class="st4" d="M1172.22,679.55L1172.22,679.55c0.11,0.05,0.15,0.17,0.11,0.28l-0.43,0.97c-0.05,0.11-0.17,0.15-0.28,0.11
			l0,0c-0.11-0.05-0.15-0.17-0.11-0.28l0.43-0.97C1171.99,679.55,1172.11,679.5,1172.22,679.55z"/>
		<path class="st3" d="M1171.69,678.99l0.97,0.43c0.26,0.12,0.38,0.42,0.26,0.69l0,0c-0.12,0.26-0.42,0.38-0.69,0.26l-0.97-0.43
			c-0.26-0.12-0.38-0.42-0.26-0.69l0,0C1171.12,678.99,1171.43,678.88,1171.69,678.99z"/>
		<path d="M1172.14,678.96l0.17,0.08c0.18,0.08,0.26,0.29,0.18,0.48v0c-0.08,0.18-0.29,0.26-0.48,0.18l-0.17-0.08
			c-0.18-0.08-0.26-0.29-0.18-0.48v0C1171.74,678.96,1171.95,678.88,1172.14,678.96z"/>
		
			<ellipse transform="matrix(0.4074 -0.9133 0.9133 0.4074 74.9096 1470.5808)" class="st4" cx="1170.57" cy="677.57" rx="1.28" ry="1.39"/>
		<ellipse transform="matrix(0.4074 -0.9133 0.9133 0.4074 74.931 1470.0742)" cx="1170.19" cy="677.3" rx="0.44" ry="0.44"/>
		<circle class="st4" cx="1169.95" cy="677.14" r="0.24"/>
		
			<rect x="1165.53" y="677.71" transform="matrix(0.9953 -0.0968 0.0968 0.9953 -60.154 116.0985)" class="st6" width="2.7" height="1.04"/>
		<path class="st5" d="M1177.02,683.27l-3.4-2.28c0,0-4.52,5.74-1.99,10.31"/>
		<path class="st4" d="M1177.02,683.27l3.4,2.28c0,0-3.61,6.35-8.79,5.75"/>
	</g>
</g>
</svg>
